<svg width="219" height="119" viewBox="0 0 219 119" fill="none" xmlns="http://www.w3.org/2000/svg">
<path d="M21.66 54.24L21.93 59.4C21.49 60.14 20.9 60.81 20.16 61.41C19.42 62.01 18.5 62.5 17.4 62.88C16.3 63.24 15 63.42 13.5 63.42C11.06 63.4 8.92 62.96 7.08 62.1C5.26 61.22 3.85 59.97 2.85 58.35C1.85 56.73 1.35 54.77 1.35 52.47C1.35 50.23 1.84 48.3 2.82 46.68C3.8 45.04 5.2 43.78 7.02 42.9C8.86 42.02 11.05 41.58 13.59 41.58C15.19 41.58 16.62 41.74 17.88 42.06C19.16 42.38 20.23 42.77 21.09 43.23L21.12 48.36H20.85C20.31 46.38 19.43 44.97 18.21 44.13C16.99 43.27 15.56 42.84 13.92 42.84C12.32 42.84 10.95 43.23 9.81 44.01C8.67 44.79 7.79 45.89 7.17 47.31C6.55 48.73 6.24 50.43 6.24 52.41C6.24 54.39 6.53 56.1 7.11 57.54C7.71 58.98 8.55 60.1 9.63 60.9C10.73 61.7 12.02 62.12 13.5 62.16C15.04 62.16 16.34 61.91 17.4 61.41C18.46 60.91 19.31 60.08 19.95 58.92C20.61 57.76 21.1 56.2 21.42 54.24H21.66ZM52.0282 41.4L61.8382 62.82H56.4382L50.1982 47.19L52.0282 41.4ZM45.5782 60.81C45.4182 61.21 45.3882 61.55 45.4882 61.83C45.5882 62.11 45.7582 62.33 45.9982 62.49C46.2382 62.63 46.4782 62.7 46.7182 62.7H46.9882V63H40.5682V62.7C40.5682 62.7 40.6182 62.7 40.7182 62.7C40.7982 62.7 40.8382 62.7 40.8382 62.7C41.2982 62.7 41.7682 62.56 42.2482 62.28C42.7482 61.98 43.1582 61.49 43.4782 60.81H45.5782ZM52.0282 41.4L52.1482 45.06L44.7082 62.91H42.5182L50.2882 45.33C50.3482 45.21 50.4482 44.99 50.5882 44.67C50.7482 44.33 50.9082 43.95 51.0682 43.53C51.2482 43.11 51.4082 42.71 51.5482 42.33C51.6882 41.93 51.7582 41.62 51.7582 41.4H52.0282ZM55.1782 55.86V57.12H46.3582V55.86H55.1782ZM55.6282 60.81H60.8782C61.2182 61.49 61.6282 61.98 62.1082 62.28C62.5882 62.56 63.0582 62.7 63.5182 62.7C63.5182 62.7 63.5582 62.7 63.6382 62.7C63.7182 62.7 63.7582 62.7 63.7582 62.7V63H54.2182V62.7H54.4882C54.8882 62.7 55.2382 62.54 55.5382 62.22C55.8382 61.88 55.8682 61.41 55.6282 60.81ZM84.1521 41.55L103.292 59.79L103.652 63.42L84.5121 45.21L84.1521 41.55ZM84.3021 60.87V63H81.8121V62.7C81.8121 62.7 81.9021 62.7 82.0821 62.7C82.2621 62.7 82.3621 62.7 82.3821 62.7C82.8821 62.7 83.3121 62.52 83.6721 62.16C84.0321 61.8 84.2121 61.37 84.2121 60.87H84.3021ZM88.5021 60.87C88.5021 61.37 88.6821 61.8 89.0421 62.16C89.4021 62.52 89.8321 62.7 90.3321 62.7C90.3521 62.7 90.4521 62.7 90.6321 62.7C90.8121 62.7 90.9021 62.7 90.9021 62.7V63H88.4121V60.87H88.5021ZM84.1521 41.55L88.4721 46.14L88.5021 63H84.2121V45.3C84.2121 44.18 84.1521 43.28 84.0321 42.6C83.9121 41.9 83.8521 41.55 83.8521 41.55H84.1521ZM103.562 42V59.58C103.562 60.32 103.592 60.99 103.652 61.59C103.712 62.17 103.772 62.62 103.832 62.94C103.892 63.26 103.922 63.42 103.922 63.42H103.652L99.3021 58.56V42H103.562ZM105.962 42V42.3C105.962 42.3 105.872 42.3 105.692 42.3C105.512 42.3 105.422 42.3 105.422 42.3C104.922 42.3 104.492 42.48 104.132 42.84C103.772 43.18 103.582 43.61 103.562 44.13H103.472V42H105.962ZM96.8721 42H99.3621V44.13H99.3021C99.2821 43.61 99.0921 43.18 98.7321 42.84C98.3921 42.48 97.9621 42.3 97.4421 42.3C97.4421 42.3 97.3521 42.3 97.1721 42.3C96.9921 42.3 96.8921 42.3 96.8721 42.3V42ZM135.909 63.6L125.979 42.18H131.349L137.769 57.81L135.909 63.6ZM135.909 63.6L135.819 59.94L143.439 42.09H145.599L137.649 59.67C137.609 59.79 137.509 60.02 137.349 60.36C137.209 60.68 137.049 61.05 136.869 61.47C136.689 61.89 136.529 62.3 136.389 62.7C136.269 63.08 136.199 63.38 136.179 63.6H135.909ZM142.539 44.19C142.799 43.59 142.769 43.13 142.449 42.81C142.129 42.47 141.779 42.3 141.399 42.3H141.129V42H147.549V42.3C147.549 42.3 147.499 42.3 147.399 42.3C147.319 42.3 147.279 42.3 147.279 42.3C146.839 42.3 146.369 42.45 145.869 42.75C145.389 43.03 144.989 43.51 144.669 44.19H142.539ZM132.189 44.19H126.909C126.589 43.51 126.179 43.03 125.679 42.75C125.199 42.45 124.729 42.3 124.269 42.3C124.269 42.3 124.229 42.3 124.149 42.3C124.069 42.3 124.029 42.3 124.029 42.3V42H133.569V42.3H133.299C132.919 42.3 132.579 42.47 132.279 42.81C131.999 43.13 131.969 43.59 132.189 44.19ZM171.888 41.4L181.698 62.82H176.298L170.058 47.19L171.888 41.4ZM165.438 60.81C165.278 61.21 165.248 61.55 165.348 61.83C165.448 62.11 165.618 62.33 165.858 62.49C166.098 62.63 166.338 62.7 166.578 62.7H166.848V63H160.428V62.7C160.428 62.7 160.478 62.7 160.578 62.7C160.658 62.7 160.698 62.7 160.698 62.7C161.158 62.7 161.628 62.56 162.108 62.28C162.608 61.98 163.018 61.49 163.338 60.81H165.438ZM171.888 41.4L172.008 45.06L164.568 62.91H162.378L170.148 45.33C170.208 45.21 170.308 44.99 170.448 44.67C170.608 44.33 170.768 43.95 170.928 43.53C171.108 43.11 171.268 42.71 171.408 42.33C171.548 41.93 171.618 41.62 171.618 41.4H171.888ZM175.038 55.86V57.12H166.218V55.86H175.038ZM175.488 60.81H180.738C181.078 61.49 181.488 61.98 181.968 62.28C182.448 62.56 182.918 62.7 183.378 62.7C183.378 62.7 183.418 62.7 183.498 62.7C183.578 62.7 183.618 62.7 183.618 62.7V63H174.078V62.7H174.348C174.748 62.7 175.098 62.54 175.398 62.22C175.698 61.88 175.728 61.41 175.488 60.81ZM209.081 41.58C209.481 41.58 209.971 41.6 210.551 41.64C211.151 41.68 211.761 41.74 212.381 41.82C213.021 41.88 213.571 41.95 214.031 42.03C214.511 42.09 214.841 42.16 215.021 42.24L214.661 46.29H214.361C214.361 45.25 213.971 44.42 213.191 43.8C212.431 43.16 211.411 42.84 210.131 42.84C208.971 42.84 208.031 43.12 207.311 43.68C206.611 44.24 206.241 44.92 206.201 45.72C206.181 46.32 206.371 46.84 206.771 47.28C207.171 47.72 207.681 48.13 208.301 48.51L214.031 52.23C214.951 52.75 215.641 53.43 216.101 54.27C216.581 55.11 216.791 56.09 216.731 57.21C216.631 59.17 215.881 60.7 214.481 61.8C213.081 62.88 211.181 63.42 208.781 63.42C207.901 63.42 207.041 63.34 206.201 63.18C205.381 63.04 204.651 62.84 204.011 62.58C203.371 62.3 202.861 61.97 202.481 61.59C202.321 61.15 202.251 60.62 202.271 60C202.291 59.38 202.381 58.75 202.541 58.11C202.721 57.47 202.941 56.94 203.201 56.52H203.471C203.391 57.54 203.571 58.49 204.011 59.37C204.471 60.23 205.131 60.92 205.991 61.44C206.871 61.94 207.911 62.18 209.111 62.16C210.431 62.14 211.451 61.81 212.171 61.17C212.891 60.51 213.251 59.72 213.251 58.8C213.251 58.18 213.061 57.62 212.681 57.12C212.321 56.62 211.721 56.14 210.881 55.68L205.631 52.2C204.571 51.6 203.801 50.83 203.321 49.89C202.841 48.95 202.651 47.93 202.751 46.83C202.851 45.79 203.161 44.88 203.681 44.1C204.201 43.3 204.911 42.68 205.811 42.24C206.731 41.8 207.821 41.58 209.081 41.58ZM215.051 41.88L214.991 42.51H211.451V41.88H215.051Z" fill="white"/>
<path d="M174.42 87.468L172.692 81.924C173.316 81.372 174.072 80.904 174.96 80.52C175.872 80.136 176.844 79.836 177.876 79.62C178.932 79.404 179.964 79.296 180.972 79.296C182.772 79.296 184.38 79.596 185.796 80.196C187.212 80.772 188.316 81.6 189.108 82.68C189.9 83.736 190.296 85.032 190.296 86.568C190.296 87.744 190.044 88.896 189.54 90.024C189.036 91.128 188.364 92.184 187.524 93.192C186.708 94.176 185.82 95.112 184.86 96C183.9 96.888 182.952 97.692 182.016 98.412C181.104 99.132 180.288 99.78 179.568 100.356H186.948C187.668 100.356 188.292 100.236 188.82 99.996C189.372 99.756 189.864 99.384 190.296 98.88C190.752 98.352 191.184 97.68 191.592 96.864H191.952L189.828 105H172.62V104.64C173.58 103.56 174.6 102.42 175.68 101.22C176.76 99.996 177.816 98.748 178.848 97.476C179.904 96.204 180.864 94.92 181.728 93.624C182.592 92.328 183.276 91.056 183.78 89.808C184.284 88.536 184.536 87.324 184.536 86.172C184.536 84.468 184.104 83.124 183.24 82.14C182.376 81.156 181.2 80.712 179.712 80.808C178.128 80.904 176.904 81.516 176.04 82.644C175.2 83.748 174.78 85.356 174.78 87.468H174.42ZM193.831 86.568L194.839 79.872L212.083 79.8L207.763 90.384C207.499 91.008 207.187 91.8 206.827 92.76C206.491 93.696 206.131 94.728 205.747 95.856C205.363 96.984 204.979 98.112 204.595 99.24C204.235 100.368 203.899 101.436 203.587 102.444C203.275 103.452 203.035 104.304 202.867 105H198.151C198.535 104.28 198.979 103.416 199.483 102.408C200.011 101.4 200.551 100.332 201.103 99.204C201.679 98.076 202.243 96.948 202.795 95.82C203.347 94.692 203.851 93.636 204.307 92.652C204.787 91.644 205.183 90.792 205.495 90.096L207.871 84.408H196.891C196.171 84.408 195.607 84.588 195.199 84.948C194.791 85.308 194.455 85.848 194.191 86.568H193.831Z" fill="#D4AA7D"/>
<mask id="path-3-inside-1_204_266" fill="white">
<path d="M155 107H30V77H155V107Z"/>
</mask>
<path d="M30 107H28V109H30V107ZM155 107V105H30V107V109H155V107ZM30 107H32V77H30H28V107H30Z" fill="white" mask="url(#path-3-inside-1_204_266)"/>
<mask id="path-5-inside-2_204_266" fill="white">
<path d="M30 0H189V30H30V0Z"/>
</mask>
<path d="M30 0V-2H28V0H30ZM189 0H191V-2H189V0ZM30 0V2H189V0V-2H30V0ZM189 0H187V30H189H191V0H189ZM30 30H32V0H30H28V30H30Z" fill="white" mask="url(#path-5-inside-2_204_266)"/>
</svg>
